<?xml version="1.0" encoding="utf-8"?>
<!-- Generator: Adobe Illustrator 16.0.0, SVG Export Plug-In . SVG Version: 6.00 Build 0)  -->
<!DOCTYPE svg PUBLIC "-//W3C//DTD SVG 1.1//EN" "http://www.w3.org/Graphics/SVG/1.1/DTD/svg11.dtd">
<svg version="1.1" id="Livello_1" xmlns="http://www.w3.org/2000/svg" xmlns:xlink="http://www.w3.org/1999/xlink" x="0px" y="0px"
	 width="100px" height="100px" viewBox="0 0 100 100" enable-background="new 0 0 100 100" xml:space="preserve">
<rect x="0" fill="none" width="100" height="100"/>
<g>
	<g>
		<path d="M59.144,70.865c-0.129-7.135-5.694-10.596-7.972-11.717V18.276c0-0.647-0.524-1.172-1.172-1.172s-1.173,0.525-1.173,1.172
			v40.872c-2.276,1.121-7.842,4.582-7.972,11.717l-0.012,0.637h18.312L59.144,70.865z M42.133,70.252
			c0.39-5.621,4.486-8.541,6.694-9.719c0.518-0.275,0.932-0.457,1.17-0.553c0.233,0.096,0.651,0.283,1.175,0.568
			c2.202,1.197,6.303,4.15,6.693,9.703H42.133z"/>
	</g>
	<g>
		<path d="M63.212,82.896H36.787l3.806-10.59h18.813L63.212,82.896z M38.565,81.645h22.868l-2.906-8.088H41.472L38.565,81.645z"/>
	</g>
</g>
</svg>
