<?xml version="1.0" encoding="UTF-8" standalone="no"?> <svg id="Layer_1" data-name="Layer 1" xmlns="http://www.w3.org/2000/svg" viewBox="0 0 64 64"><title>art-imagination-concentrate-drawing-painting-color-palette</title><path d="M39.5,38.16a3,3,0,1,0,3,3A3,3,0,0,0,39.5,38.16Zm0,4a1,1,0,1,1,1-1A1,1,0,0,1,39.5,42.16Z"/><path d="M47,43A19,19,0,0,0,22.51,24.81a1,1,0,0,0-.63,1.36A9,9,0,0,1,10.72,38.3a1,1,0,0,0-1.3.74A19,19,0,1,0,47,43ZM28,60A17,17,0,0,1,11,43a17.24,17.24,0,0,1,.18-2.48,10.88,10.88,0,0,0,2.47.28,11,11,0,0,0,11-11,10.82,10.82,0,0,0-.53-3.35A17,17,0,1,1,28,60Z"/><path d="M26.84,36.16a6,6,0,1,0,6,6A6,6,0,0,0,26.84,36.16Zm0,10a4,4,0,1,1,4-4A4,4,0,0,1,26.84,46.16Z"/><path d="M18.47,48a3,3,0,1,0,3,3A3,3,0,0,0,18.47,48Zm0,4a1,1,0,1,1,1-1A1,1,0,0,1,18.47,52Z"/><path d="M28,52a3,3,0,1,0,3,3A3,3,0,0,0,28,52Zm0,4a1,1,0,1,1,1-1A1,1,0,0,1,28,56Z"/><path d="M37.49,48a3,3,0,1,0,3,3A3,3,0,0,0,37.49,48Zm0,4a1,1,0,1,1,1-1A1,1,0,0,1,37.49,52Z"/><path d="M38.49,32.82a3,3,0,1,0-3,3A3,3,0,0,0,38.49,32.82Zm-4,0a1,1,0,1,1,1,1A1,1,0,0,1,34.49,32.82Z"/><path d="M3,54h7.93V52H4V8H44V32.65h2V7a1,1,0,0,0-1-1H28.9a5,5,0,0,0-9.8,0H3A1,1,0,0,0,2,7V53A1,1,0,0,0,3,54ZM24,4a3,3,0,0,1,2.82,2H21.18A3,3,0,0,1,24,4Z"/><path d="M16.07,21.72l4.32,2a1,1,0,0,0,1-.08l14.19-9.84-1.14-1.64L20.71,21.69,16.2,19.57a1,1,0,0,0-1.2.29L8.22,28.38l1.56,1.24Z"/><path d="M52.91,56.51l3,5a1,1,0,0,0,.77.49h.09a1,1,0,0,0,.75-.35c3.07-3.57,4.74-7.4,4.45-10.27a4.34,4.34,0,0,0-1.6-3.09,10.6,10.6,0,0,0-.88-.6,1,1,0,0,0,.28-.69V3a1,1,0,0,0-1-1h-4a1,1,0,0,0-1,1V47a.91.91,0,0,0,.16.51,5.51,5.51,0,0,0-.92.84C51,50.66,50.72,52.15,52.91,56.51ZM55.77,4h2V41h-2Zm0,39h2v3h-2Zm-1.25,6.65h0a2.49,2.49,0,0,1,1.91-.95,4.61,4.61,0,0,1,2.71,1.17A2.37,2.37,0,0,1,60,51.58c.2,2-1,4.91-3.09,7.68l-2.23-3.71C52.75,51.72,53.23,51.16,54.52,49.65Z"/></svg>