<?xml version="1.0" encoding="UTF-8"?>
<!DOCTYPE svg PUBLIC "-//W3C//DTD SVG 1.1//EN" "http://www.w3.org/Graphics/SVG/1.1/DTD/svg11.dtd">
<!-- Creator: CorelDRAW -->
<svg xmlns="http://www.w3.org/2000/svg" xml:space="preserve" width="1.70666in" height="1.70666in" version="1.1" style="shape-rendering:geometricPrecision; text-rendering:geometricPrecision; image-rendering:optimizeQuality; fill-rule:evenodd; clip-rule:evenodd"
viewBox="0 0 1707 1707"
 xmlns:xlink="http://www.w3.org/1999/xlink">
 <defs>
  <style type="text/css">
   <![CDATA[
    .fil0 {fill:#000002}
   ]]>
  </style>
 </defs>
 <g id="Layer_x0020_1">
  <metadata id="CorelCorpID_0Corel-Layer"/>
  <path class="fil0" d="M1020 1177c-74,0 -56,-83 -7,-79 8,1 46,3 53,-25 -11,-85 23,-172 25,-177 19,-47 91,-18 72,29 -14,35 -41,137 0,189 26,35 80,47 161,38 51,-6 60,71 9,77 -94,11 -187,-2 -236,-73 -24,15 -52,21 -77,21zm15 530c-75,0 -142,-38 -182,-96 -122,178 -402,91 -402,-125 -161,-5 -276,-158 -238,-313 -263,-118 -251,-496 16,-600 -76,-162 39,-354 222,-360 7,-211 282,-292 402,-117 121,-175 395,-94 403,117 183,6 297,198 222,360 266,104 279,482 16,600 38,155 -77,308 -238,313 0,122 -99,221 -221,221zm-143 -221c0,79 64,143 143,143 92,0 160,-87 139,-176 -6,-27 17,-52 44,-47 138,22 244,-116 192,-241 -9,-21 2,-45 24,-52 104,-33 173,-128 173,-237 0,-116 -82,-218 -196,-242 -28,-6 -41,-39 -23,-62 87,-114 5,-281 -140,-281 -20,0 -31,4 -45,1 -4,-1 -65,-12 -127,96 -26,44 -94,6 -68,-39 59,-102 126,-129 170,-134 -3,-76 -66,-137 -143,-137 -78,0 -142,63 -143,143l0 1265zm-78 -1265c0,-79 -64,-143 -142,-143 -77,0 -140,61 -143,137 44,5 110,32 169,134 26,45 -42,83 -67,39 -69,-119 -129,-92 -145,-95 -151,-26 -263,152 -167,279 17,23 5,56 -23,62 -114,24 -197,126 -197,242 0,109 70,204 174,237 21,7 33,31 24,52 -53,126 54,263 191,241 27,-5 51,20 45,47 -22,89 46,176 139,176 78,0 142,-64 142,-143l0 -1265zm341 491c-102,0 -200,-105 -138,-141 19,-11 43,-4 53,14 44,75 156,60 179,-23 6,-25 3,-52 -10,-74 -26,-45 42,-83 68,-39 67,117 -18,263 -152,263zm-681 74c-13,0 -26,-7 -33,-19 -78,-135 46,-298 197,-257 75,20 147,103 92,134 -19,11 -42,5 -53,-14 -43,-75 -156,-60 -179,24 -6,25 -3,51 10,74 15,26 -4,58 -34,58zm232 479c-83,0 -144,-25 -180,-76 -27,17 -62,23 -91,20 -51,-6 -43,-83 8,-78 8,1 46,3 53,-25 -12,-85 22,-172 24,-177 20,-48 92,-19 73,29 -14,35 -41,136 -1,189 27,34 81,47 161,37 51,-6 60,72 9,78 -20,2 -39,3 -56,3z"/>
 </g>
</svg>
