<?xml version="1.0" encoding="utf-8"?>
<!-- Generator: Adobe Illustrator 25.4.1, SVG Export Plug-In . SVG Version: 6.00 Build 0)  -->
<svg version="1.1" id="Outline" xmlns="http://www.w3.org/2000/svg" xmlns:xlink="http://www.w3.org/1999/xlink" x="0px" y="0px"
	 viewBox="0 0 512 512" enable-background="new 0 0 512 512" xml:space="preserve">
<path d="M455.32,184.657c-0.082-0.406-0.195-0.805-0.34-1.195c-2.957-8.008-10.73-13.391-19.344-13.391
	c-5.484,0-10.648,2.141-14.543,6.023c-0.751,0.752-1.308,1.632-1.996,2.428L403.606,75.235
	c-2.289-15.266-10.973-28.93-23.809-37.492c-6.403-4.266-14.608-4.806-21.569-1.522l-2.748-12.548
	c-2.566-10.383-10.188-18.656-20.352-22.125c-9.664-3.336-21.449-0.758-28.992,6.789c-5.25,5.258-8.262,12.539-8.262,19.977
	c0,1.398,0.035,2.797,0.234,3.977l1.152,8.326c-12.479-2.699-25.508,3.087-31.215,14.502c-2.41,4.93-3.332,10.336-2.668,15.625
	l1.34,10.693c-3.208-0.192-6.621,0.239-10.193,1.713c-3.589-1.484-7.012-1.914-10.213-1.715l1.34-10.691
	c0.664-5.289-0.258-10.695-2.703-15.688c-5.668-11.329-18.665-17.13-31.183-14.438l1.121-8.109c0.234-1.398,0.27-2.797,0.27-4.195
	c0-7.438-3.012-14.719-8.262-19.977c-5.328-5.328-12.422-8.266-19.98-8.266c-3.145,0-6.176,0.5-8.98,1.469
	c-10.195,3.477-17.816,11.75-20.434,22.344l-2.7,12.338c-6.958-3.301-15.165-2.753-21.562,1.521
	c-12.844,8.562-21.523,22.227-23.812,37.492L93.933,178.524c-0.69-0.799-1.249-1.683-2.003-2.438
	c-3.887-3.875-9.051-6.016-14.535-6.016c-8.613,0-16.387,5.383-19.344,13.391c-0.145,0.391-0.258,0.789-0.34,1.195l-7.289,36.297
	c-1.402,7.273-1.402,14.641,0.012,21.969l12.086,60.523c1.617,7.891,4.793,15.141,9.406,21.516l26.562,37.203
	c3.836,5.375,5.949,11.961,5.949,18.547v5.222c-5.701-0.683-10.738-1.32-14.863-1.87c-2.316-0.312-4.598,0.383-6.328,1.914
	c-1.734,1.516-2.73,3.711-2.73,6.016v112c0,4.422,3.582,8,8,8h152c4.418,0,8-3.578,8-8v-104c0-2.461-1.137-4.789-3.078-6.305
	c-1.941-1.523-4.48-2.078-6.863-1.453c-1.726,0.43-3.825,0.767-6.137,1.049v-10.088c0-11.121,2.199-22.159,6.411-32.826
	c5.883,1.03,11.789,1.623,17.667,1.623c5.877,0,11.784-0.593,17.667-1.623c4.215,10.686,6.412,21.715,6.412,32.826v10.101
	c-2.576-0.313-4.587-0.679-6.137-1.062c-2.379-0.609-4.922-0.062-6.863,1.453s-3.078,3.844-3.078,6.305v104c0,4.422,3.582,8,8,8h152
	c4.418,0,8-3.578,8-8v-112c0-2.305-0.996-4.5-2.73-6.016c-1.738-1.523-4.043-2.203-6.328-1.914
	c-0.097,0.014-5.837,0.774-14.863,1.854v-5.206c0-6.586,2.113-13.172,5.953-18.547l26.527-37.156
	c4.645-6.422,7.82-13.672,9.445-21.602l12.09-60.539c1.402-7.273,1.402-14.641-0.012-21.977L455.32,184.657z M364.953,50.681
	c1.902-0.93,4.195-0.805,5.965,0.375c9.094,6.062,15.242,15.742,16.867,26.555l20.809,138.729v18.693
	c0,1.664-0.438,3.156-1.297,4.453l-8.996,13.531c-1.316,1.93-3.336,3.219-5.453,3.516c-4.597,0.597-10.17,1.71-16.066,3.612
	c8.238-22.529,10.08-45.45,4.641-65.714c-1.328-4.948-3.055-9.603-5.152-13.95L361.707,56.696
	C361.414,54.22,362.723,51.798,364.953,50.681z M317.457,19.649c3.262-3.266,8.438-4.352,12.477-2.969
	c5.016,1.711,8.762,5.758,9.965,10.625l5.893,26.935c-0.118,1.429-0.147,2.872,0.025,4.331l11.561,98.267
	c-3.13-2.464-6.454-4.715-10.064-6.619c-5.547-2.931-11.357-4.705-17.281-5.593l-13.114-93.743
	c-0.051-0.375-0.129-0.742-0.234-1.094l-2.758-19.906c-0.086-0.523-0.051-1.047-0.051-1.57
	C313.875,25.087,315.18,21.923,317.457,19.649z M282.387,62.212c2.551-5.094,9.027-7.633,14.703-5.75l4.672,1.57l12.07,86.27
	c-7.616,0.704-15.201,2.493-22.489,4.961l-10.089-80.504C280.981,66.556,281.383,64.274,282.387,62.212z M271.027,115.806
	l4.972,39.677c-2.81,1.33-5.494,2.719-8.098,4.122L271.027,115.806z M250.902,98.087c3.133,1.594,5,4.844,4.754,8.297l-4.057,56.85
	c-4.45-2.625-9.341-5.287-14.565-7.761l7.213-57.558C247.21,97.186,249.009,97.152,250.902,98.087z M183.129,16.673
	c3.934-1.367,9.188-0.289,12.445,2.977c2.277,2.273,3.582,5.438,3.582,8.664c0,0.523,0.035,1.047-0.086,1.789l-2.723,19.672
	c-0.102,0.359-0.184,0.734-0.234,1.109L190.5,91.024c-0.613,4.375,2.438,8.422,6.812,9.031c0.379,0.055,0.75,0.078,1.121,0.078
	c3.926,0,7.352-2.891,7.91-6.891l4.924-35.213l4.615-1.553c5.719-1.883,12.211,0.648,14.727,5.672
	c1.039,2.125,1.441,4.406,1.168,6.617l-10.088,80.481c-7.288-2.47-14.871-4.259-22.487-4.962l3.016-21.55
	c0.613-4.375-2.438-8.422-6.812-9.031c-4.367-0.633-8.422,2.43-9.031,6.812l-3.373,24.096c-5.922,0.89-11.73,2.666-17.276,5.599
	c-3.613,1.906-6.94,4.159-10.072,6.625l11.561-98.266c0.172-1.46,0.143-2.905,0.024-4.335l5.843-26.719
	C174.336,22.438,178.082,18.392,183.129,16.673z M125.246,77.61c1.625-10.812,7.773-20.492,16.875-26.555
	c1.766-1.188,4.051-1.336,5.949-0.375c2.238,1.117,3.547,3.539,3.254,6.016l-14.563,123.786c-2.097,4.347-3.824,9.001-5.152,13.948
	c-5.438,20.263-3.598,43.183,4.64,65.711c-5.878-1.897-11.424-3.004-15.976-3.594c-2.207-0.312-4.227-1.602-5.496-3.461
	l-9.043-13.602c-0.859-1.297-1.297-2.789-1.297-4.453v-18.693L125.246,77.61z M232.516,495.993h-136v-94.914
	c24.211,3,90.246,10.572,127.714,8.841c0.073,0.002,0.134,0.042,0.208,0.042c0.104,0,0.19-0.055,0.293-0.059
	c2.751-0.134,5.378-0.308,7.785-0.55V495.993z M216.438,383.196v10.983c-26.383,0.334-65.819-3.119-96-6.42v-7.047
	c0-9.898-3.172-19.781-8.93-27.844l-26.59-37.25c-3.258-4.492-5.582-9.82-6.719-15.352l-12.066-60.43
	c-1.016-5.258-1.016-10.594-0.012-15.789l7.125-35.469c0.852-1.727,2.648-2.508,4.148-2.508c0.859,0,2.121,0.234,3.223,1.336
	c5.043,5.047,7.82,11.734,7.82,18.828v28.797c0,4.805,1.375,9.406,3.977,13.312l9.09,13.672c3.848,5.656,9.875,9.438,16.625,10.391
	c6.472,0.838,18.635,3.38,28.959,10.757c0.941,1.625,1.772,3.275,2.783,4.883c17.703,28.158,44.583,49.032,73.399,58.42
	C218.812,358.427,216.438,370.75,216.438,383.196z M163.418,279.532c-16.711-26.578-22.828-56.844-16.355-80.953
	c0.937-3.493,2.154-6.767,3.569-9.87c0.631-0.809,1.077-1.719,1.359-2.746c4.907-9.398,12.058-16.781,21.205-21.603
	c5.926-3.133,12.465-4.414,19.211-4.414c22.844,0,48.055,14.742,59.684,22.461c2.68,1.781,6.172,1.781,8.852,0
	c12.01-7.976,38.505-23.391,61.933-22.356c0.038,0,0.072,0.02,0.11,0.02c0.07,0,0.142-0.013,0.212-0.015
	c5.833,0.295,11.479,1.579,16.647,4.312c9.137,4.814,16.284,12.191,21.19,21.583c0.284,1.042,0.736,1.963,1.375,2.779
	c1.411,3.096,2.625,6.363,3.56,9.849c6.473,24.109,0.355,54.375-16.355,80.953c-21.562,34.297-58.105,56.461-93.098,56.461
	S184.981,313.829,163.418,279.532z M446.91,239.782l-12.07,60.445c-1.145,5.57-3.469,10.898-6.758,15.438l-26.555,37.203
	c-5.762,8.062-8.934,17.945-8.934,27.844v7.046c-2.659,0.292-5.423,0.591-8.289,0.892c-4.395,0.461-7.582,4.391-7.121,8.789
	c0.465,4.398,4.395,7.578,8.793,7.117c12.562-1.312,23.395-2.602,30.539-3.484v94.922h-136v-86.625
	c15.434,1.586,40.168,0.961,73.812-1.812c4.402-0.367,7.676-4.234,7.312-8.633s-4.133-7.633-8.633-7.32
	c-26.089,2.162-44.022,2.781-56.414,2.605v-11.012c0-12.438-2.372-24.754-6.833-36.728c28.817-9.388,55.696-30.263,73.399-58.42
	c1.011-1.608,1.842-3.258,2.783-4.883c10.324-7.377,22.49-9.919,29.049-10.773c6.66-0.938,12.688-4.719,16.582-10.445l9.043-13.602
	c2.602-3.906,3.977-8.508,3.977-13.312v-28.797c0-7.094,2.777-13.781,7.812-18.82c1.109-1.109,2.371-1.344,3.23-1.344
	c1.5,0,3.297,0.781,4.148,2.508l7.113,35.406C447.914,229.243,447.914,234.579,446.91,239.782z"/>
<path d="M175.863,251.806c-1.75-4.055-6.457-5.914-10.508-4.188c-4.059,1.75-5.934,6.453-4.188,10.516
	c2.5,5.812,5.531,11.57,9.012,17.109c1.52,2.414,4.121,3.742,6.781,3.742c1.453,0,2.926-0.398,4.25-1.227
	c3.738-2.352,4.867-7.289,2.516-11.031C180.688,261.892,178.043,256.868,175.863,251.806z"/>
<path d="M192.328,167.993c-5.977,0-11.02,1.133-15.402,3.453c-11.051,5.812-18.5,15.641-22.145,29.211
	c-2.664,9.93-3.012,20.922-1.039,32.664c0.656,3.906,4.047,6.672,7.883,6.672c0.438,0,0.887-0.039,1.332-0.109
	c4.359-0.734,7.297-4.859,6.566-9.219c-1.57-9.328-1.324-18.273,0.711-25.859c2.473-9.219,7.098-15.5,14.156-19.211
	c2.039-1.078,4.633-1.602,7.938-1.602c4.418,0,8-3.578,8-8S196.746,167.993,192.328,167.993z"/>
</svg>
